<svg xmlns="http://www.w3.org/2000/svg" width="48" height="26" viewBox="0 0 48 26">
	<g fill="#f4eed7">
		<path d="M24 .28c-2.64 0-5.4.148-7.842.878-2.444.73-4.602 2.086-5.832 4.457-2.06 3.972-2.707 8.5-4.394 13.418-.765 2.228-2.028 3.55-3.59 4.39-.735.396-1.546.67-2.4.868l-.192.046v1.383l.3-.064c1.02-.21 2.017-.524 2.944-1.023 1.832-.986 3.37-2.636 4.235-5.154 1.734-5.06 2.4-9.542 4.315-13.234 1.03-1.985 2.79-3.11 5.008-3.773 2.217-.663 4.86-.82 7.447-.82 2.586 0 5.23.157 7.447.82 2.22.663 3.978 1.788 5.008 3.773 1.915 3.692 2.58 8.175 4.316 13.233.866 2.517 2.404 4.167 4.236 5.153.927.5 1.925.813 2.943 1.023l.3.063v-1.384l-.193-.045c-.853-.196-1.664-.47-2.4-.866-1.56-.84-2.824-2.163-3.59-4.39-1.686-4.92-2.333-9.447-4.393-13.42-1.23-2.37-3.388-3.725-5.832-4.456C29.4.428 26.64.28 24 .28z" />
		<path d="M24 5.482a9 9 0 0 0-9 9 9 9 0 0 0 9 9 9 9 0 0 0 9-9 9 9 0 0 0-9-9zm-.563 2.25h1.125l.563.563v7.875l-.563.562h-1.125l-.562-.562V8.295zm0 11.25h1.125l.563.563v1.125l-.563.562h-1.125l-.562-.562v-1.125z" />
	</g>
</svg>
