<svg xmlns="http://www.w3.org/2000/svg">
	<defs>
		<g id="empty">
			<circle cx="0" cy="0" r="8.5" fill="#24221c" stroke="#484537" stroke-width="3" />
		</g>
		<g id="full">
			<circle cx="0" cy="0" r="10" fill="#f4eed7" />
			<path d="m -6,0.146447 4,4 8,-8" fill="none" stroke="#484537" stroke-width="4" />
		</g>
		<g id="blacklisted">
			<circle cx="0" cy="0" r="8.5" fill="#24221c" stroke="#f4eed7" stroke-width="3" />
			<line x1="-6" y1="6" x2="6" y2="-6" stroke="#f4eed7" stroke-width="3" />
		</g>
		<g id="whitelisted">
			<circle cx="0" cy="0" r="10" fill="#f4eed7" />
			<path d="m -6,0.146447 4,4 8,-8" fill="none" stroke="#484537" stroke-width="4" />
		</g>
		<g id="add">
			<circle cx="0" cy="0" r="10" fill="#f4eed7" />
			<path d="M 0,6 L 0,-6 M -6,0 L 6,0" fill="none" stroke="#484537" stroke-width="4" />
		</g>
		<g id="shakelisted">
			<circle cx="0" cy="0" r="10" fill="#24221c" />
			<path d="m 9.0377505,2.947198 c 0.58194,-1.16388 1.4132825,-3.657909 0.665074,-5.736267 0,0 0,0 0,0.08313 l 0,0 c 0,0 -0.166269,0.415672 -0.332537,1.080746 0,-0.08313 0,-0.166268 0,-0.249403 0.08313,-0.748208 0,-1.579552 -0.08313,-2.410895 -0.249403,-1.247014 -1.163881,-2.32776 -1.662686,-2.660297 0,0 0.08313,0 0.08313,0.08313 -0.08313,-0.08313 -0.08313,-0.08313 -0.08313,-0.08313 0,0 0,0.08313 0.08313,0.332537 -0.581941,-0.914478 -1.330149,-1.247015 -1.330149,-1.247015 0,0 0,0.166269 0.08313,0.415672 -1.662683,-1.579552 -3.907309,-2.49403 -6.318204,-2.49403 -2.4940291,0 -4.7386554,0.997612 -6.4844759,2.577164 0.083134,0.08313 0.1662686,0.249403 0.3325372,0.415672 0,0 0.6650745,-0.08313 1.4132833,-0.08313 1.4132832,-0.997611 2.9928351,-1.496417 4.7386554,-1.496417 2.161492,0 4.23985,0.914477 5.819402,2.494029 -0.166269,-0.08313 -0.08313,0 0,0.08313 -0.498806,-0.332537 -0.997612,-0.665074 -1.413283,-0.665074 0.831343,0.665074 2.161492,2.244626 1.995223,5.154327 -0.249403,-0.498806 -0.498806,-0.831343 -0.748209,-1.080746 0.332537,2.909701 0,3.491641 -0.166268,4.23985 0,-0.332538 -0.166269,-0.581941 -0.249403,-0.748209 0,0 0,0.914477 -0.581941,2.161492 -0.415671,0.997612 -0.914477,1.247014 -1.080746,1.247014 -0.166268,0 -0.08313,-0.166268 -0.08313,-0.332537 0,0 -0.332537,0.166269 -0.58194,0.498806 -0.249403,0.332537 -0.498806,0.665075 -0.665074,0.498806 0.08313,-0.08313 0.166268,-0.249403 0.249403,-0.332537 -0.08313,0.08313 -0.415672,0.332537 -0.997612,0.415671 -0.249403,0 -1.330149,0.249403 -2.7434322,-0.498806 0.2494029,0 0.4988058,-0.08313 0.7482087,0.08313 -0.2494069,-0.249403 -0.831347,-0.249403 -1.2470185,-0.332538 -0.4156716,-0.332537 -0.9144774,-0.831343 -1.1638804,-1.16388 1.080746,0.249403 2.3277606,0.08313 2.9928354,-0.415671 0.665074,-0.498806 1.080746,-0.831343 1.496417,-0.748209 0.332538,0.08313 0.58194,-0.332537 0.332538,-0.665075 -0.249403,-0.332537 -0.997612,-0.831343 -1.91209,-0.58194 -0.6650741,0.166269 -1.4964171,0.914478 -2.7434317,0.166269 -1.080746,-0.665075 -1.080746,-1.163881 -1.080746,-1.496418 0,-0.249403 0.1662686,-0.58194 0.4156715,-0.665074 0.1662686,0.08313 0.2494029,0.08313 0.2494029,0.08313 0,0 -0.083134,-0.08313 -0.083134,-0.166269 l 0,0 c 0.083134,0 0.3325372,0.166269 0.4988059,0.166269 0.1662686,0.08313 0.2494029,0.166269 0.2494029,0.166269 0,0 0,0 0,-0.08313 0,0 -0.083134,-0.166268 -0.2494029,-0.249403 l 0,0 c 0.083134,0 0.1662686,0.08313 0.3325372,0.166269 0,-0.166269 0.083134,-0.332537 0.083134,-0.58194 0,-0.166269 0,-0.249403 -0.083134,-0.332537 -0.083134,-0.08313 0,-0.08313 0.083134,0 0,-0.08313 0,-0.08313 -0.083134,-0.166269 l 0,0 c 0,0 0,0 0,-0.08313 0.1662686,-0.249403 1.4964175,-0.997612 1.5795518,-1.080746 0.1662686,-0.08313 0.2494029,-0.249403 0.3325372,-0.415672 0.1662687,-0.08313 0.249403,-0.415671 0.249403,-0.665074 0,-0.08314 -0.1662686,-0.249403 -0.3325373,-0.249403 -0.083134,0 -0.3325372,-0.08313 -0.4988058,0 l 0,0 c -0.2494029,0 -0.5819401,0 -0.9976117,0 -0.4156715,0 -0.6650744,-0.249403 -0.8313431,-0.498806 0,-0.08313 -0.083134,-0.08313 -0.083134,-0.166269 0,-0.08313 -0.083134,-0.166268 -0.083134,-0.166268 0.1662686,-0.665075 0.5819402,-1.247015 1.1638803,-1.745821 0,0 -0.1662686,0 -0.083134,0 0,0 0.249403,-0.166268 0.3325373,-0.166268 0.083134,0 -0.249403,-0.08313 -0.4988059,-0.08313 -0.4156715,0.166269 -0.4988058,0.166269 -0.6650745,0.249403 0.083134,-0.08313 0.249403,-0.166268 0.1662687,-0.166268 -0.249403,0.08313 -0.5819402,0.332537 -0.9144774,0.498806 l 0,-0.08313 c -0.1662686,0.08313 -0.4988059,0.332537 -0.5819402,0.58194 0,-0.08313 0,-0.08313 0,-0.08313 -0.083134,0 -0.1662686,0.166269 -0.2494029,0.249403 l 0,0 c -0.9144774,-0.249403 -1.6626862,-0.166269 -2.3277606,0 -0.1662686,-0.08313 -0.4988059,-0.415672 -0.7482088,-0.831343 0,0 0,0.08313 -0.083134,0.08313 -0.083134,-0.332537 -0.2494029,-0.748209 -0.2494029,-1.080746 l 0,-0.08313 c 0,0 -0.083134,0.08313 -0.249403,0.249403 -0.083134,0.166268 -0.166268,0.249403 -0.166268,0.415671 0,0.08313 -0.08313,0.166269 -0.08313,0.166269 l 0,-0.166269 c 0,0.08313 -0.08314,0.166269 -0.166269,0.249403 0,0.166269 0,0.249403 -0.08313,0.332538 l 0,0 c 0,0 0,-0.166269 0,-0.08313 -0.08313,0.166269 -0.166269,0.415672 -0.166269,0.665075 -0.08313,0.249403 -0.08313,0.415671 -0.08313,0.665074 0,0.249403 0,0.58194 0,0.997612 0,0.08313 0,0.08313 0,0.166268 -0.249403,0.332538 -0.415673,0.581941 -0.498806,0.748209 -0.332537,0.58194 -0.58194,1.496418 -0.831344,2.909701 0,0 0.166269,-0.498806 0.498807,-1.080746 l 0,0 c -0.249403,0.748209 -0.415673,1.912089 -0.332538,3.65791 0,-0.08313 0.08313,-0.498806 0.166269,-1.080746 0.08314,1.16388 0.415672,2.577163 1.247014,4.156715 0.6650747,1.16388 1.4132834,1.995223 2.2446265,2.660298 0.1662686,0.166268 0.3325372,0.249403 0.4988059,0.415671 1.080746,0.831343 2.7434321,1.745821 4.1567154,1.995224 -0.4988059,-0.166269 -0.8313431,-0.415672 -0.8313431,-0.415672 0,0 1.6626861,0.58194 2.9097003,0.498806 -0.415671,-0.08313 -0.498805,-0.249403 -0.498805,-0.249403 0,0 3.491641,0.166269 5.320595,-1.247014 0.415672,-0.332538 0.665075,-0.665075 0.748209,-0.997612 0.498806,-0.332537 1.080746,-0.665075 1.662686,-1.330149 0.997612,-0.997612 1.080746,-1.745821 1.163881,-2.494029 l 0,0.08313 c 0.166268,-0.332537 0.166268,-0.58194 0.08313,-0.748209 z" fill="#f4eed7" />
		</g>
	</defs>
</svg>
